#!OML:ASF F:\VICON\USERDATA\INSTALL\rory3\rory3.ASF
:FULLY-SPECIFIED
:DEGREES
359
root 1.15851 17.8202 30.2254 -2.55824 -0.555425 1.78127
lowerback 9.16137 -0.416349 -2.77136
upperback 0.920874 -0.77137 1.4207
thorax -4.12472 -0.324766 3.13661
lowerneck -16.5566 -2.62181 -1.76409
upperneck 18.0676 -3.28027 0.562308
head 8.38979 -1.61396 0.085742
rclavicle 5.29264e-015 -2.38542e-015
rhumerus -31.3979 -16.1361 -79.1573
rradius 26.4321
rwrist 4.53916
rhand -14.6664 23.4157
rfingers 7.12502
rthumb 11.4865 -6.24963
lclavicle 5.29264e-015 -2.38542e-015
lhumerus -30.7856 -5.58117 83.3214
lradius 30.6469
lwrist 8.22954
lhand -26.6882 23.5261
lfingers 7.12502
lthumb -0.118938 53.5058
rfemur -30.9624 -2.60497 20.6484
rtibia 57.4611
rfoot -11.4859 -8.08188
rtoes 1.55878
lfemur -0.927472 -2.01814 -26.6391
ltibia 26.1571
lfoot -17.768 -0.561491
ltoes -1.4794
360
root 1.15524 17.8144 30.3875 -2.4902 -0.408564 2.13909
lowerback 9.2787 -0.490841 -3.11054
upperback 0.823332 -0.912125 1.34463
thorax -4.27763 -0.384737 3.27
lowerneck -16.3888 -2.60918 -1.87287
upperneck 18.053 -3.26504 0.687845
head 8.35905 -1.60206 0.149727
rclavicle 1.34677e-014 1.03368e-014
rhumerus -31.6935 -16.2693 -79.0308
rradius 26.4737
rwrist 4.749
rhand -14.6547 23.499
rfingers 7.12502
rthumb 11.4978 -6.16566
lclavicle 1.34677e-014 1.03368e-014
lhumerus -30.5644 -5.69268 83.1136
lradius 30.9915
lwrist 7.91137
lhand -26.6672 24.1902
lfingers 7.12502
lthumb -0.0986505 54.1699
rfemur -31.167 -2.54624 20.1983
rtibia 54.9358
rfoot -11.8749 -8.26444
rtoes 0.161632
lfemur -0.112547 -2.05323 -27.0617
ltibia 25.5427
lfoot -17.7996 -0.666529
ltoes -0.708487
361
root 1.14575 17.8193 30.5406 -2.25382 -0.384047 1.97983
lowerback 9.19128 -0.590874 -2.99352
upperback 0.847711 -1.02705 1.42387
thorax -4.1948 -0.445206 3.29883
lowerneck -16.5314 -2.60282 -1.99735
upperneck 18.0448 -3.26751 0.906217
head 8.38794 -1.58825 0.241172
rclavicle -4.42296e-015 1.66979e-014
rhumerus -31.6276 -16.352 -79.1257
rradius 26.5822
rwrist 4.93339
rhand -14.831 23.2594
rfingers 7.12502
rthumb 11.3277 -6.41467
lclavicle -4.42296e-015 1.66979e-014
lhumerus -30.1263 -5.29549 82.6421
lradius 31.5852
lwrist 6.59996
lhand -26.5013 25.4892
lfingers 7.12502
lthumb 0.0616115 55.469
rfemur -31.5543 -2.2754 20.3741
rtibia 52.1637
rfoot -11.6239 -8.68316
rtoes 0.0677934
lfemur 0.394219 -2.24932 -26.9051
ltibia 24.9329
lfoot -17.669 -0.599763
ltoes -0.0176204
362
root 1.13252 17.8261 30.7009 -2.06449 -0.410625 1.91651
lowerback 8.93771 -0.640072 -3.05298
upperback 0.913697 -1.08815 1.49903
thorax -3.97692 -0.479492 3.41187
lowerneck -16.3002 -2.58372 -2.05993
upperneck 17.7174 -3.26644 1.10088
head 8.24114 -1.57368 0.321441
rclavicle -4.22417e-015 2.34566e-014
rhumerus -31.6942 -16.2298 -79.2096
rradius 26.8026
rwrist 4.92939
rhand -14.8754 22.9308
rfingers 7.12502
rthumb 11.2849 -6.74562
lclavicle -4.22417e-015 2.34566e-014
lhumerus -29.8202 -5.2189 82.3149
lradius 32.3082
lwrist 5.97536
lhand -26.7722 24.2856
lfingers 7.12502
lthumb -0.200106 54.2652
rfemur -31.7952 -1.87481 20.4372
rtibia 49.2745
rfoot -11.0203 -9.16984
rtoes -0.468468
lfemur 0.997306 -2.2583 -26.8074
ltibia 24.3159
lfoot -17.6238 -0.625501
ltoes 0.787542
363
root 1.12085 17.8216 30.8684 -1.88976 -0.292507 2.00522
lowerback 8.88241 -0.667536 -3.1844
upperback 0.759127 -1.13609 1.52165
thorax -4.10035 -0.495914 3.5168
lowerneck -15.9525 -2.63256 -2.11822
upperneck 17.5774 -3.33594 1.15469
head 8.13567 -1.60738 0.345787
rclavicle 4.77083e-015 7.95139e-015
rhumerus -32.1924 -16.3429 -78.9964
rradius 26.9137
rwrist 4.89064
rhand -14.7542 22.9017
rfingers 7.12502
rthumb 11.4018 -6.76826
lclavicle 4.77083e-015 7.95139e-015
lhumerus -29.7707 -5.7179 82.3144
lradius 32.5771
lwrist 6.71768
lhand -27.5794 21.2951
lfingers 7.12502
lthumb -0.979645 51.2726
rfemur -31.8268 -1.5303 20.2386
rtibia 46.2449
rfoot -10.4489 -9.54661
rtoes -0.958248
lfemur 1.7296 -2.2721 -26.874
ltibia 23.6685
lfoot -17.6106 -0.715398
ltoes 1.45463
364
root 1.10918 17.8117 31.0359 -1.71134 -0.117854 2.1695
lowerback 8.8076 -0.740348 -3.39402
upperback 0.602971 -1.25228 1.52978
thorax -4.20715 -0.544841 3.65864
lowerneck -15.8682 -2.66838 -2.07667
upperneck 17.8118 -3.36631 0.985531
head 8.19589 -1.63642 0.278782
rclavicle 1.5704e-014 -1.98785e-014
rhumerus -32.5203 -16.6364 -78.7262
rradius 26.6652
rwrist 5.24962
rhand -14.7546 22.8651
rfingers 7.12502
rthumb 11.4014 -6.80487
lclavicle 1.5704e-014 -1.98785e-014
lhumerus -29.6895 -6.70346 82.5604
lradius 32.5095
lwrist 9.22437
lhand -28.623 17.9126
lfingers 7.12502
lthumb -1.9876 47.8831
rfemur -31.8504 -1.22804 19.9533
rtibia 43.1824
rfoot -9.72588 -9.96658
rtoes -2.5861
lfemur 2.61792 -2.23671 -27.0383
ltibia 22.8092
lfoot -17.6704 -0.585038
ltoes 0.51317
